<svg width="24" height="20" viewBox="0 0 24 20" fill="none" xmlns="http://www.w3.org/2000/svg">
<path d="M22.657 8.88082C23.0436 8.88082 23.359 8.99104 23.6032 9.21148C23.8677 9.41497 24 9.67781 24 10C24 10.3222 23.8677 10.5935 23.6032 10.814C23.359 11.0174 23.0436 11.1192 22.657 11.1192H13.343V18.8554C13.343 19.1776 13.2108 19.4489 12.9462 19.6693C12.702 19.8898 12.3866 20 12 20C11.6134 20 11.2878 19.8898 11.0233 19.6693C10.7791 19.4489 10.657 19.1776 10.657 18.8554V11.1192H1.34302C0.956395 11.1192 0.630814 11.0174 0.366279 10.814C0.122093 10.5935 0 10.3222 0 10C0 9.67781 0.122093 9.41497 0.366279 9.21148C0.630814 8.99104 0.956395 8.88082 1.34302 8.88082H10.657V1.11919C10.657 0.796997 10.7791 0.534158 11.0233 0.330669C11.2878 0.110223 11.6134 0 12 0C12.3866 0 12.702 0.110223 12.9462 0.330669C13.2108 0.534158 13.343 0.796997 13.343 1.11919V8.88082H22.657Z" fill="url(#paint0_linear)"/>
<defs>
<linearGradient id="paint0_linear" x1="24" y1="20" x2="11.4487" y2="-5.61077" gradientUnits="userSpaceOnUse">
<stop offset="0.9999" stop-color="#C4C4C4"/>
<stop offset="1" stop-color="#15D6D6"/>
</linearGradient>
</defs>
</svg>
