<svg width="164" height="169" viewBox="0 0 164 169" fill="none" xmlns="http://www.w3.org/2000/svg">
<path fill-rule="evenodd" clip-rule="evenodd" d="M47.9004 4.71949C50.289 6.70276 52.7715 10.7521 53.3008 14.4141C53.8178 17.9876 49.9611 20.4154 48.3447 23.1571C46.6886 25.9709 46.074 31.7446 42.9819 32.3459C39.9686 32.9328 37.3311 28.5602 35.0079 26.6323C32.6193 24.6532 28.3783 23.0375 27.8557 19.3705C27.3455 15.8003 28.4646 10.7437 30.0814 7.99891C31.7374 5.18872 35.4357 1.90641 38.5201 1.3047C41.5339 0.722744 45.5769 2.79476 47.9004 4.71949ZM30.0801 34.8888C30.6093 38.5518 29.4607 41.5967 27.7527 44.3751C26.0974 47.0769 24.4959 52.1167 21.4821 52.6984C18.397 53.2992 13.9679 51.4451 11.613 49.4166C9.32171 47.4277 9.20187 42.6272 8.68555 39.0538C8.16878 35.391 7.83677 31.3868 9.538 28.6161C11.2001 25.9073 14.1704 23.3615 17.1838 22.772C20.2756 22.1792 22.8537 25.226 25.216 27.2595C27.5013 29.2376 29.5697 31.3155 30.0801 34.8888ZM43.8636 38.6284C48.6775 37.7848 54.9646 39.325 62.1847 47.387C71.66 57.9466 73.1575 66.4227 70.0231 71.5845C63.2983 82.649 56.0526 82.0378 49.9406 83.2293C43.6526 84.4489 33.7584 84.9316 28.9133 78.8683C25.4803 74.5721 24.8526 67.0443 29.3335 54.2458C33.2857 42.9569 33.989 40.3611 43.8636 38.6284ZM129.161 85.0266C132.168 85.6974 135.369 89.2867 136.998 92.0268C138.678 94.8609 139.854 99.6645 139.289 103.313C138.744 106.87 134.419 107.583 132.103 109.5C129.735 111.462 127.481 116.627 124.395 115.934C121.395 115.274 120.175 110.103 118.54 107.351C116.866 104.529 113.337 101.299 113.895 97.651C114.441 94.0876 116.964 89.8037 119.28 87.8836C121.649 85.9159 126.075 84.334 129.161 85.0266ZM109.127 103.968C110.716 106.758 112.066 109.537 111.519 113.096C110.954 116.744 108.988 119.133 106.587 121.048C104.238 122.91 101.286 126.978 98.2784 126.312C95.1928 125.624 91.5479 122.094 89.9263 119.23C88.3433 116.452 89.6167 111.891 90.1686 108.332C90.7209 104.684 91.5741 100.798 93.981 98.8897C96.3231 97.0269 99.8608 95.842 102.868 96.5136C105.954 97.202 107.499 101.107 109.127 103.968ZM123.414 122.181C128.204 123.345 133.671 127.344 138.142 137.822C144.018 151.566 142.649 159.668 138.537 163.69C133.103 168.999 122.369 167.832 116.263 166.469C109.988 165.071 100.53 161.509 97.7131 153.854C95.7331 148.445 97.3063 141.125 105.228 130.938C112.193 121.952 113.624 119.803 123.414 122.18L123.414 122.181ZM139.127 128.313C137.447 125.486 136.328 122.409 136.893 118.762C137.438 115.211 139.528 113.19 141.844 111.264C144.212 109.302 146.821 106.32 149.906 107.008C152.906 107.683 155.859 110.319 157.494 113.067C159.168 115.893 158.803 119.88 158.245 123.526C157.693 127.078 157.526 131.881 155.223 133.806C152.841 135.776 148.395 137.497 145.316 136.808C142.309 136.143 140.756 131.06 139.127 128.312L139.127 128.313ZM55.5056 29.9407C54.9954 26.3671 56.3707 23.6221 57.9876 20.8809C59.6436 18.0678 61.2259 14.2061 64.3178 13.6052C67.3311 13.0186 70.8572 14.3039 73.1807 16.2318C75.5692 18.2151 76.3776 22.1095 76.9009 25.7807C77.4172 29.3521 78.6459 33.9426 77.0297 36.6836C75.3804 39.5016 71.7075 42.9276 68.6163 43.5283C65.603 44.111 62.6908 39.9591 60.3608 38.0311C57.9781 36.0479 56.0357 33.6037 55.5056 29.9407Z" fill="#8B5C00" stroke="black" stroke-width="1.333"/>
</svg>
